<svg width="247" height="186" viewBox="0 0 247 186" fill="none" xmlns="http://www.w3.org/2000/svg">
    <path d="M145.018 8.28333C149.244 15.72 146.11 25.011 138.463 29.036L98.0166 48.8639C97.2509 49.2355 96.6551 49.8843 96.3499 50.6788C96.0448 51.4733 96.053 52.3542 96.3731 53.1428C96.622 53.7677 97.0529 54.3033 97.61 54.6801C98.1672 55.0569 98.8247 55.2575 99.4973 55.2559L211.833 55.2559C218.498 55.2559 223.333 61.4132 223.333 68.0832C223.333 74.7532 218.498 80.5415 211.833 80.5415H136.776C135.375 80.5254 134.022 81.0565 133.005 82.0219C131.989 82.9873 131.389 84.311 131.333 85.7117C131.32 86.4123 131.446 87.1085 131.705 87.7596C131.964 88.4108 132.35 89.0038 132.841 89.5039C133.332 90.0041 133.917 90.4013 134.563 90.6725C135.209 90.9437 135.903 91.0832 136.604 91.0831H234.833C241.498 91.0831 246.333 96.3252 246.333 102.995C246.333 109.665 241.498 115.041 234.833 115.041H136.776C135.375 115.025 134.022 115.556 133.005 116.522C131.989 117.487 131.389 118.811 131.333 120.212C131.32 120.912 131.446 121.608 131.705 122.26C131.964 122.911 132.35 123.504 132.841 124.004C133.332 124.504 133.917 124.901 134.563 125.172C135.209 125.444 135.903 125.583 136.604 125.583H219.499C226.165 125.583 230.999 131.371 230.999 138.041C230.999 144.711 225.685 150.5 219.02 150.5H129.11C127.708 150.484 126.355 151.015 125.339 151.98C124.322 152.945 123.722 154.269 123.666 155.67C123.653 156.37 123.779 157.067 124.038 157.718C124.297 158.369 124.683 158.962 125.174 159.462C125.665 159.962 126.25 160.359 126.897 160.631C127.543 160.902 128.236 161.041 128.937 161.041H188.833C195.498 161.041 200.333 166.35 200.333 173.02C200.333 179.69 195.436 185.057 188.833 185H85.3331C29.0743 185 1.00003 150.5 1.00003 108.333V100.666C1.00003 58.4999 19.975 45.2222 43.1666 35.4999L124.146 2.59564C132.771 -0.595598 140.797 0.851479 145.018 8.28333Z"
          fill="white" stroke="white"/>
    <path d="M66.1183 65.0709C65.8505 65.2048 65.4823 65.3721 65.0137 65.573C64.5451 65.7738 63.5743 66.2759 62.1015 67.0793C60.6287 67.8826 59.2228 68.753 57.8838 69.6902C56.5449 70.6275 54.9382 71.9329 53.0636 73.6066C51.1891 75.2803 49.415 77.0209 47.7413 78.8285C46.0677 80.6361 44.4274 82.8788 42.8207 85.5567C41.214 88.2346 39.8081 90.9794 38.6031 93.7912C37.398 96.603 36.4607 99.8834 35.7913 103.632C35.1218 107.381 34.7536 111.264 34.6866 115.281C34.6197 119.298 34.9879 123.181 35.7913 126.93C36.5946 130.679 37.5654 133.993 38.7035 136.872C39.8416 139.75 41.214 142.462 42.8207 145.006C44.4274 147.55 46.1011 149.792 47.8418 151.734C49.5824 153.675 51.2895 155.416 52.9632 156.956C54.6369 158.496 56.3106 159.801 57.9842 160.872C59.6579 161.943 61.0303 162.814 62.1015 163.483C63.1726 164.153 64.1434 164.655 65.0137 164.989L66.1183 165.492C66.3861 165.425 66.7543 165.257 67.223 164.989C67.6916 164.722 68.6288 164.22 70.0347 163.483C71.4406 162.747 72.8465 161.876 74.2524 160.872C75.6583 159.868 77.2985 158.563 79.173 156.956C81.0475 155.349 82.7882 153.608 84.3949 151.734C86.0016 149.859 87.6418 147.617 89.3155 145.006C90.9892 142.395 92.3951 139.65 93.5332 136.771C94.6713 133.893 95.6085 130.612 96.345 126.93C97.0814 123.248 97.4496 119.365 97.4496 115.281C97.4496 111.197 97.0814 107.315 96.345 103.632C95.6085 99.9503 94.6713 96.6364 93.5332 93.6908C92.3951 90.7451 90.9892 88.0337 89.3155 85.5567C87.6418 83.0796 86.0016 80.8369 84.3949 78.8285C82.7882 76.8201 81.0475 75.0795 79.173 73.6066C77.2985 72.1338 75.6583 70.8283 74.2524 69.6902C72.8465 68.5521 71.4406 67.6818 70.0347 67.0793C68.6288 66.4768 67.6581 65.9746 67.1225 65.573L66.1183 65.0709ZM66.1183 96.5025C71.2733 96.5025 75.6918 98.3101 79.3739 101.925C83.0559 105.54 84.897 109.992 84.897 115.281C84.897 120.57 83.0559 125.022 79.3739 128.637C75.6918 132.252 71.2733 134.093 66.1183 134.16C60.9634 134.227 56.5114 132.386 52.7624 128.637C49.0133 124.888 47.1723 120.436 47.2392 115.281C47.3062 110.126 49.1472 105.674 52.7624 101.925C56.3775 98.1762 60.8295 96.3686 66.1183 96.5025ZM66.1183 102.729C62.6371 102.729 59.6579 103.967 57.1809 106.444C54.7038 108.921 53.4988 111.867 53.5657 115.281C53.6327 118.696 54.8377 121.641 57.1809 124.118C59.524 126.595 62.5032 127.834 66.1183 127.834C69.7335 127.834 72.6791 126.595 74.9553 124.118C77.2315 121.641 78.4701 118.696 78.6709 115.281C78.8718 111.867 77.6332 108.921 74.9553 106.444L66.1183 115.281V102.729Z"
          fill="black"/>
</svg>
