<svg width="128" height="128" viewBox="0 0 128 128" fill="none" xmlns="http://www.w3.org/2000/svg">
    <g clip-path="url(#clip0_10_57)">
        <path d="M102.4 23.4667L15.4667 57.0667C9.60002 59.2 9.60002 62.9333 14.4 64L36.2667 70.9333L44.8 96.5333C45.8667 99.2 45.3334 100.267 48 100.267C50.1334 100.267 51.2 99.2 52.2667 98.1333C52.8 97.6 57.6 92.8 62.9334 87.4667L85.3334 104C89.6 106.133 92.2667 105.067 93.3334 100.267L108.267 30.4C109.867 24.5333 106.133 21.3333 102.4 23.4667ZM91.2 39.4667L49.6 77.3333L48 94.9333L39.4667 69.3333L88.5334 38.4C90.6667 36.8 92.8 37.8667 91.2 39.4667Z"
              fill="white"/>
    </g>
    <defs>
        <clipPath id="clip0_10_57">
            <rect width="128" height="128" fill="white"/>
        </clipPath>
    </defs>
</svg>
