<svg width="128" height="128" viewBox="0 0 128 128" fill="none" xmlns="http://www.w3.org/2000/svg">
    <path d="M76.252 63C74.252 62.248 74.252 59.376 74.128 57.376C73.628 50.252 76.128 39.376 73.128 34.752C71.004 32 60.752 32.252 54.504 32.628C52.752 32.88 50.628 33.252 49.128 34.004C47.628 34.756 46.128 36.004 46.128 37.128C46.128 38.752 49.88 38.504 51.252 40.628C52.752 42.88 52.752 47.752 52.752 51.752C52.752 56.376 52 62.504 50.128 62.752C47.252 62.876 45.628 60 44.128 57.876C41.128 53.752 38.128 48.624 35.876 43.624C34.752 41 34.124 38.124 32.5 37C30 35.248 25.5 35.124 21.124 35.248C17.124 35.372 11.372 34.872 10.248 37.248C9.37201 39.872 11.248 42.372 12.248 44.5C17.372 55.624 22.872 65.376 29.624 74.624C35.876 83.248 41.748 90.124 53.248 93.748C56.5 94.748 70.748 97.624 73.624 93.748C74.624 92.248 74.376 88.872 74.876 86.372C75.376 83.872 76 81.372 78.376 81.248C80.376 81.124 81.5 82.872 82.752 84.124C84.128 85.5 85.252 86.624 86.252 87.876C88.628 90.252 91.128 93.5 94.128 94.752C98.252 96.504 104.628 96.004 110.628 95.752C115.504 95.628 119.004 94.628 119.38 91.752C119.632 89.5 117.128 86.252 115.628 84.376C111.876 79.752 110.128 78.376 105.876 74.124C104 72.248 101.624 70.248 101.624 68C101.5 66.624 102.624 65.376 103.624 64C108 57.5 112.376 52.876 116.376 46.124C117.5 44.124 120.128 39.5 119.128 37.248C118.004 34.748 111.752 35.496 107.876 35.496C102.876 35.496 96.376 35.12 95.124 36.12C92.748 37.744 91.748 40.372 90.624 42.872C88.124 48.624 84.748 54.496 81.248 58.872C79.996 60.372 77.624 63.496 76.248 62.996L76.252 63Z"
          fill="white"/>
</svg>
